<mxfile host="app.diagrams.net" agent="Mozilla/5.0 (Windows NT 10.0; Win64; x64) AppleWebKit/537.36 (KHTML, like Gecko) Chrome/140.0.0.0 Safari/537.36 Edg/140.0.0.0" version="28.2.5">
  <diagram name="Trang-1" id="KnCDH6vPmuo6wsWf4z7U">
    <mxGraphModel dx="1235" dy="600" grid="1" gridSize="10" guides="1" tooltips="1" connect="1" arrows="1" fold="1" page="1" pageScale="1" pageWidth="827" pageHeight="1169" math="0" shadow="0">
      <root>
        <mxCell id="0" />
        <mxCell id="1" parent="0" />
        <mxCell id="fuyaUcdW9tKpShWOC_qU-3" value="" style="edgeStyle=orthogonalEdgeStyle;rounded=0;orthogonalLoop=1;jettySize=auto;html=1;" edge="1" parent="1" source="fuyaUcdW9tKpShWOC_qU-1" target="fuyaUcdW9tKpShWOC_qU-2">
          <mxGeometry relative="1" as="geometry" />
        </mxCell>
        <mxCell id="fuyaUcdW9tKpShWOC_qU-1" value="0" style="ellipse;whiteSpace=wrap;html=1;aspect=fixed;" vertex="1" parent="1">
          <mxGeometry x="180" y="30" width="80" height="80" as="geometry" />
        </mxCell>
        <mxCell id="fuyaUcdW9tKpShWOC_qU-5" style="edgeStyle=orthogonalEdgeStyle;rounded=0;orthogonalLoop=1;jettySize=auto;html=1;" edge="1" parent="1" source="fuyaUcdW9tKpShWOC_qU-2">
          <mxGeometry relative="1" as="geometry">
            <mxPoint x="120" y="370" as="targetPoint" />
          </mxGeometry>
        </mxCell>
        <mxCell id="fuyaUcdW9tKpShWOC_qU-6" style="edgeStyle=orthogonalEdgeStyle;rounded=0;orthogonalLoop=1;jettySize=auto;html=1;entryX=0.5;entryY=0;entryDx=0;entryDy=0;" edge="1" parent="1" source="fuyaUcdW9tKpShWOC_qU-2" target="fuyaUcdW9tKpShWOC_qU-8">
          <mxGeometry relative="1" as="geometry">
            <mxPoint x="320" y="360" as="targetPoint" />
          </mxGeometry>
        </mxCell>
        <mxCell id="fuyaUcdW9tKpShWOC_qU-2" value="1" style="ellipse;whiteSpace=wrap;html=1;aspect=fixed;" vertex="1" parent="1">
          <mxGeometry x="180" y="190" width="80" height="80" as="geometry" />
        </mxCell>
        <mxCell id="fuyaUcdW9tKpShWOC_qU-4" value="if - else&lt;div&gt;&lt;br&gt;&lt;/div&gt;" style="text;html=1;align=center;verticalAlign=middle;whiteSpace=wrap;rounded=0;" vertex="1" parent="1">
          <mxGeometry x="190" y="200" width="60" height="30" as="geometry" />
        </mxCell>
        <mxCell id="fuyaUcdW9tKpShWOC_qU-12" value="" style="edgeStyle=orthogonalEdgeStyle;rounded=0;orthogonalLoop=1;jettySize=auto;html=1;" edge="1" parent="1" source="fuyaUcdW9tKpShWOC_qU-7" target="fuyaUcdW9tKpShWOC_qU-11">
          <mxGeometry relative="1" as="geometry" />
        </mxCell>
        <mxCell id="fuyaUcdW9tKpShWOC_qU-7" value="2" style="ellipse;whiteSpace=wrap;html=1;aspect=fixed;" vertex="1" parent="1">
          <mxGeometry x="80" y="370" width="80" height="80" as="geometry" />
        </mxCell>
        <mxCell id="fuyaUcdW9tKpShWOC_qU-27" value="" style="edgeStyle=orthogonalEdgeStyle;rounded=0;orthogonalLoop=1;jettySize=auto;html=1;" edge="1" parent="1" source="fuyaUcdW9tKpShWOC_qU-8" target="fuyaUcdW9tKpShWOC_qU-26">
          <mxGeometry relative="1" as="geometry" />
        </mxCell>
        <mxCell id="fuyaUcdW9tKpShWOC_qU-8" value="6" style="ellipse;whiteSpace=wrap;html=1;aspect=fixed;" vertex="1" parent="1">
          <mxGeometry x="280" y="370" width="80" height="80" as="geometry" />
        </mxCell>
        <mxCell id="fuyaUcdW9tKpShWOC_qU-9" value="w&amp;gt;1" style="text;html=1;align=center;verticalAlign=middle;whiteSpace=wrap;rounded=0;" vertex="1" parent="1">
          <mxGeometry x="60" y="280" width="60" height="30" as="geometry" />
        </mxCell>
        <mxCell id="fuyaUcdW9tKpShWOC_qU-10" value="bd = w" style="text;whiteSpace=wrap;html=1;" vertex="1" parent="1">
          <mxGeometry x="30" y="390" width="70" height="40" as="geometry" />
        </mxCell>
        <mxCell id="fuyaUcdW9tKpShWOC_qU-14" value="" style="edgeStyle=orthogonalEdgeStyle;rounded=0;orthogonalLoop=1;jettySize=auto;html=1;" edge="1" parent="1" source="fuyaUcdW9tKpShWOC_qU-11" target="fuyaUcdW9tKpShWOC_qU-13">
          <mxGeometry relative="1" as="geometry" />
        </mxCell>
        <mxCell id="fuyaUcdW9tKpShWOC_qU-16" value="" style="edgeStyle=orthogonalEdgeStyle;rounded=0;orthogonalLoop=1;jettySize=auto;html=1;" edge="1" parent="1" source="fuyaUcdW9tKpShWOC_qU-11" target="fuyaUcdW9tKpShWOC_qU-15">
          <mxGeometry relative="1" as="geometry" />
        </mxCell>
        <mxCell id="fuyaUcdW9tKpShWOC_qU-11" value="3" style="ellipse;whiteSpace=wrap;html=1;aspect=fixed;" vertex="1" parent="1">
          <mxGeometry x="80" y="530" width="80" height="80" as="geometry" />
        </mxCell>
        <mxCell id="fuyaUcdW9tKpShWOC_qU-13" value="4" style="ellipse;whiteSpace=wrap;html=1;aspect=fixed;" vertex="1" parent="1">
          <mxGeometry x="-80" y="530" width="80" height="80" as="geometry" />
        </mxCell>
        <mxCell id="fuyaUcdW9tKpShWOC_qU-15" value="5" style="ellipse;whiteSpace=wrap;html=1;aspect=fixed;" vertex="1" parent="1">
          <mxGeometry x="80" y="690" width="80" height="80" as="geometry" />
        </mxCell>
        <mxCell id="fuyaUcdW9tKpShWOC_qU-17" value="if(h&amp;gt;w)" style="text;whiteSpace=wrap;html=1;" vertex="1" parent="1">
          <mxGeometry x="30" y="544.5" width="70" height="40" as="geometry" />
        </mxCell>
        <mxCell id="fuyaUcdW9tKpShWOC_qU-19" value="bd = h" style="text;whiteSpace=wrap;html=1;" vertex="1" parent="1">
          <mxGeometry x="-120" y="560" width="70" height="40" as="geometry" />
        </mxCell>
        <mxCell id="fuyaUcdW9tKpShWOC_qU-20" value="h&amp;lt;w" style="text;whiteSpace=wrap;html=1;" vertex="1" parent="1">
          <mxGeometry x="130" y="630" width="60" height="40" as="geometry" />
        </mxCell>
        <mxCell id="fuyaUcdW9tKpShWOC_qU-23" value="" style="endArrow=classic;html=1;rounded=0;exitX=0.5;exitY=1;exitDx=0;exitDy=0;entryX=-0.035;entryY=0.418;entryDx=0;entryDy=0;entryPerimeter=0;" edge="1" parent="1" source="fuyaUcdW9tKpShWOC_qU-13" target="fuyaUcdW9tKpShWOC_qU-15">
          <mxGeometry width="50" height="50" relative="1" as="geometry">
            <mxPoint x="150" y="470" as="sourcePoint" />
            <mxPoint x="200" y="420" as="targetPoint" />
          </mxGeometry>
        </mxCell>
        <mxCell id="fuyaUcdW9tKpShWOC_qU-24" value="w&amp;lt;=1" style="text;html=1;align=center;verticalAlign=middle;whiteSpace=wrap;rounded=0;" vertex="1" parent="1">
          <mxGeometry x="330" y="280" width="60" height="30" as="geometry" />
        </mxCell>
        <mxCell id="fuyaUcdW9tKpShWOC_qU-25" value="&lt;span style=&quot;color: rgb(0, 0, 0); font-family: Helvetica; font-size: 12px; font-style: normal; font-variant-ligatures: normal; font-variant-caps: normal; font-weight: 400; letter-spacing: normal; orphans: 2; text-align: left; text-indent: 0px; text-transform: none; widows: 2; word-spacing: 0px; -webkit-text-stroke-width: 0px; white-space: normal; background-color: rgb(236, 236, 236); text-decoration-thickness: initial; text-decoration-style: initial; text-decoration-color: initial; float: none; display: inline !important;&quot;&gt;bd = l&lt;/span&gt;" style="text;whiteSpace=wrap;html=1;" vertex="1" parent="1">
          <mxGeometry x="370" y="390" width="70" height="40" as="geometry" />
        </mxCell>
        <mxCell id="fuyaUcdW9tKpShWOC_qU-30" value="" style="edgeStyle=orthogonalEdgeStyle;rounded=0;orthogonalLoop=1;jettySize=auto;html=1;" edge="1" parent="1" source="fuyaUcdW9tKpShWOC_qU-26" target="fuyaUcdW9tKpShWOC_qU-29">
          <mxGeometry relative="1" as="geometry" />
        </mxCell>
        <mxCell id="fuyaUcdW9tKpShWOC_qU-26" value="7" style="ellipse;whiteSpace=wrap;html=1;aspect=fixed;" vertex="1" parent="1">
          <mxGeometry x="280" y="530" width="80" height="80" as="geometry" />
        </mxCell>
        <mxCell id="fuyaUcdW9tKpShWOC_qU-28" value="if" style="text;html=1;align=center;verticalAlign=middle;whiteSpace=wrap;rounded=0;" vertex="1" parent="1">
          <mxGeometry x="360" y="545" width="60" height="30" as="geometry" />
        </mxCell>
        <mxCell id="fuyaUcdW9tKpShWOC_qU-29" value="9" style="ellipse;whiteSpace=wrap;html=1;aspect=fixed;" vertex="1" parent="1">
          <mxGeometry x="280" y="690" width="80" height="80" as="geometry" />
        </mxCell>
        <mxCell id="fuyaUcdW9tKpShWOC_qU-39" style="edgeStyle=orthogonalEdgeStyle;rounded=0;orthogonalLoop=1;jettySize=auto;html=1;entryX=0;entryY=0.5;entryDx=0;entryDy=0;" edge="1" parent="1" source="fuyaUcdW9tKpShWOC_qU-31" target="fuyaUcdW9tKpShWOC_qU-29">
          <mxGeometry relative="1" as="geometry" />
        </mxCell>
        <mxCell id="fuyaUcdW9tKpShWOC_qU-31" value="8" style="ellipse;whiteSpace=wrap;html=1;aspect=fixed;" vertex="1" parent="1">
          <mxGeometry x="170" y="690" width="80" height="80" as="geometry" />
        </mxCell>
        <mxCell id="fuyaUcdW9tKpShWOC_qU-33" value="" style="endArrow=classic;html=1;rounded=0;entryX=0.72;entryY=0.038;entryDx=0;entryDy=0;entryPerimeter=0;exitX=0.015;exitY=0.598;exitDx=0;exitDy=0;exitPerimeter=0;" edge="1" parent="1" source="fuyaUcdW9tKpShWOC_qU-26" target="fuyaUcdW9tKpShWOC_qU-31">
          <mxGeometry width="50" height="50" relative="1" as="geometry">
            <mxPoint x="250" y="590" as="sourcePoint" />
            <mxPoint x="300" y="540" as="targetPoint" />
          </mxGeometry>
        </mxCell>
        <mxCell id="fuyaUcdW9tKpShWOC_qU-34" value="10" style="ellipse;whiteSpace=wrap;html=1;aspect=fixed;" vertex="1" parent="1">
          <mxGeometry x="150" y="850" width="80" height="80" as="geometry" />
        </mxCell>
        <mxCell id="fuyaUcdW9tKpShWOC_qU-35" value="" style="endArrow=classic;html=1;rounded=0;entryX=0.5;entryY=0;entryDx=0;entryDy=0;exitX=0.5;exitY=1;exitDx=0;exitDy=0;" edge="1" parent="1" source="fuyaUcdW9tKpShWOC_qU-15" target="fuyaUcdW9tKpShWOC_qU-34">
          <mxGeometry width="50" height="50" relative="1" as="geometry">
            <mxPoint x="250" y="790" as="sourcePoint" />
            <mxPoint x="300" y="740" as="targetPoint" />
          </mxGeometry>
        </mxCell>
        <mxCell id="fuyaUcdW9tKpShWOC_qU-36" value="" style="endArrow=classic;html=1;rounded=0;entryX=0.5;entryY=0;entryDx=0;entryDy=0;exitX=0.5;exitY=1;exitDx=0;exitDy=0;" edge="1" parent="1" source="fuyaUcdW9tKpShWOC_qU-29" target="fuyaUcdW9tKpShWOC_qU-34">
          <mxGeometry width="50" height="50" relative="1" as="geometry">
            <mxPoint x="250" y="820" as="sourcePoint" />
            <mxPoint x="320" y="900" as="targetPoint" />
          </mxGeometry>
        </mxCell>
        <mxCell id="fuyaUcdW9tKpShWOC_qU-37" value="h&amp;lt;=l" style="text;html=1;align=center;verticalAlign=middle;whiteSpace=wrap;rounded=0;" vertex="1" parent="1">
          <mxGeometry x="330" y="640" width="60" height="30" as="geometry" />
        </mxCell>
        <mxCell id="fuyaUcdW9tKpShWOC_qU-38" value="&lt;span style=&quot;color: rgb(0, 0, 0); font-family: Helvetica; font-size: 12px; font-style: normal; font-variant-ligatures: normal; font-variant-caps: normal; font-weight: 400; letter-spacing: normal; orphans: 2; text-align: left; text-indent: 0px; text-transform: none; widows: 2; word-spacing: 0px; -webkit-text-stroke-width: 0px; white-space: normal; background-color: rgb(236, 236, 236); text-decoration-thickness: initial; text-decoration-style: initial; text-decoration-color: initial; float: none; display: inline !important;&quot;&gt;bd = h&lt;/span&gt;&lt;div&gt;&lt;span style=&quot;color: rgb(0, 0, 0); font-family: Helvetica; font-size: 12px; font-style: normal; font-variant-ligatures: normal; font-variant-caps: normal; font-weight: 400; letter-spacing: normal; orphans: 2; text-align: left; text-indent: 0px; text-transform: none; widows: 2; word-spacing: 0px; -webkit-text-stroke-width: 0px; white-space: normal; background-color: rgb(236, 236, 236); text-decoration-thickness: initial; text-decoration-style: initial; text-decoration-color: initial; float: none; display: inline !important;&quot;&gt;&lt;br&gt;&lt;/span&gt;&lt;/div&gt;" style="text;whiteSpace=wrap;html=1;" vertex="1" parent="1">
          <mxGeometry x="250" y="690" width="60" height="40" as="geometry" />
        </mxCell>
        <mxCell id="fuyaUcdW9tKpShWOC_qU-40" value="h&amp;gt;l" style="text;html=1;align=center;verticalAlign=middle;whiteSpace=wrap;rounded=0;" vertex="1" parent="1">
          <mxGeometry x="210" y="610" width="60" height="30" as="geometry" />
        </mxCell>
      </root>
    </mxGraphModel>
  </diagram>
</mxfile>
